#!OML:ASF F:\VICON\USERDATA\INSTALL\rory7\rory7.ASF
:FULLY-SPECIFIED
:DEGREES
150
root -1.15817 20.1121 1.74113 -0.459084 -77.9531 -5.56852
lowerback 10.2386 1.96522 0.577735
upperback -5.54344 2.6009 -0.926188
thorax -11.7044 1.13242 -1.85137
lowerneck -16.7353 -4.24501 -9.98051
upperneck -14.2583 -4.2112 8.27972
head -1.2631 -1.93198 4.03141
rclavicle -1.74931e-014 -1.19271e-015
rhumerus 89.0314 -27.9374 -44.2234
rradius 21.1649
rwrist 33.5506
rhand -41.2028 7.81019
rfingers 7.12502
rthumb -14.1271 -21.6896
lclavicle -1.74931e-014 -1.19271e-015
lhumerus 95.2613 18.325 23.3129
lradius 29.5254
lwrist -11.4757
lhand -26.8757 19.223
lfingers 7.12502
lthumb -0.300032 49.2025
rfemur 6.04161 18.5568 25.5391
rtibia 29.5934
rfoot 6.65527 -10.2827
rtoes -1.91079
lfemur 1.09101 -8.55666 -21.0345
ltibia 23.1996
lfoot 14.6052 9.27782
ltoes -6.52999
151
root -1.18393 20.1151 1.74491 0.56671 -78.0755 -6.59204
lowerback 10.2401 2.08635 0.606567
upperback -5.5621 2.77479 -0.870134
thorax -11.7224 1.21538 -1.84204
lowerneck -16.7307 -4.38129 -10.1907
upperneck -14.1618 -4.34162 8.48105
head -1.21165 -1.98565 4.11968
rclavicle -1.21259e-014 8.34896e-015
rhumerus 88.7657 -28.0121 -43.949
rradius 21.194
rwrist 33.1341
rhand -41.0038 8.27913
rfingers 7.12502
rthumb -13.9353 -21.2339
lclavicle -1.21259e-014 8.34896e-015
lhumerus 95.0075 18.3826 22.6281
lradius 30.6927
lwrist -11.5653
lhand -27.4239 18.912
lfingers 7.12502
lthumb -0.829462 48.8901
rfemur 5.8291 18.3832 25.6834
rtibia 29.5679
rfoot 6.24249 -11.3529
rtoes -0.18298
lfemur 1.25449 -8.85308 -20.908
ltibia 23.1264
lfoot 14.4251 9.36855
ltoes -7.53428
152
root -1.20545 20.1167 1.74576 1.71312 -78.2322 -7.70346
lowerback 10.2802 2.20322 0.641384
upperback -5.59357 2.94464 -0.808617
thorax -11.7789 1.29536 -1.83175
lowerneck -16.6343 -4.47346 -10.3489
upperneck -14.2065 -4.43094 8.69657
head -1.21878 -2.02415 4.21035
rclavicle 9.93923e-015 6.36111e-015
rhumerus 88.2666 -28.0743 -43.2185
rradius 21.3371
rwrist 31.8258
rhand -40.9056 8.59905
rfingers 7.12502
rthumb -13.8407 -20.9205
lclavicle 9.93923e-015 6.36111e-015
lhumerus 94.805 18.4527 22.1244
lradius 31.7631
lwrist -11.8468
lhand -27.8537 18.7184
lfingers 7.12502
lthumb -1.24462 48.6946
rfemur 5.52441 18.053 25.7901
rtibia 29.5591
rfoot 5.81775 -12.4744
rtoes 0.891846
lfemur 1.3454 -8.85607 -20.6713
ltibia 23.0573
lfoot 14.1846 9.53694
ltoes -6.97939
153
root -1.22534 20.1169 1.74695 2.73452 -78.4 -8.71085
lowerback 10.365 2.29937 0.665471
upperback -5.62461 3.08459 -0.753964
thorax -11.8632 1.36099 -1.81944
lowerneck -16.4522 -4.46153 -10.4664
upperneck -14.2753 -4.39805 8.88578
head -1.2574 -2.0053 4.29449
rclavicle 2.48481e-015 0
rhumerus 88.1602 -27.8976 -43.2118
rradius 21.3444
rwrist 31.3419
rhand -40.8594 7.20406
rfingers 7.12502
rthumb -13.7962 -22.3185
lclavicle 2.48481e-015 0
lhumerus 94.5767 18.5132 21.7992
lradius 32.7677
lwrist -12.3642
lhand -28.4894 18.512
lfingers 7.12502
lthumb -1.85861 48.4836
rfemur 5.18122 17.494 25.7831
rtibia 29.5664
rfoot 5.46777 -13.5696
rtoes 2.4896
lfemur 1.41646 -8.43514 -20.3806
ltibia 23.005
lfoot 14.0597 9.30999
ltoes -6.43773
154
root -1.24701 20.116 1.75042 3.56462 -78.5625 -9.52198
lowerback 10.3557 2.41421 0.711181
upperback -5.61506 3.249 -0.734
thorax -11.8403 1.4372 -1.85559
lowerneck -16.3291 -4.47047 -10.5333
upperneck -14.3115 -4.40157 8.9755
head -1.28002 -2.00533 4.33582
rclavicle -4.77083e-014 -4.77083e-015
rhumerus 88.3213 -27.7134 -43.7365
rradius 21.2
rwrist 31.634
rhand -40.7295 6.21814
rfingers 7.12502
rthumb -13.6709 -23.3129
lclavicle -4.77083e-014 -4.77083e-015
lhumerus 94.4298 18.6051 21.6082
lradius 33.7349
lwrist -12.792
lhand -29.5042 18.3251
lfingers 7.12502
lthumb -2.83869 48.2859
rfemur 4.82476 16.8884 25.6971
rtibia 29.609
rfoot 5.23486 -14.4065
rtoes 3.53091
lfemur 1.51571 -8.04674 -20.1732
ltibia 22.9394
lfoot 14.0336 8.9326
ltoes -7.6757
155
root -1.2668 20.1156 1.7538 4.14135 -78.7838 -10.0644
lowerback 10.3486 2.52006 0.729819
upperback -5.6004 3.39073 -0.770133
thorax -11.8116 1.5021 -1.9327
lowerneck -16.2184 -4.48998 -10.563
upperneck -14.432 -4.42241 9.12443
head -1.3227 -2.01742 4.39042
rclavicle 2.84262e-014 2.94201e-014
rhumerus 88.4987 -27.5551 -44.3124
rradius 20.9747
rwrist 31.7991
rhand -40.5017 6.90949
rfingers 7.12502
rthumb -13.4514 -22.6362
lclavicle 2.84262e-014 2.94201e-014
lhumerus 94.3249 18.7105 21.4967
lradius 34.5991
lwrist -13.1383
lhand -30.7548 18.3312
lfingers 7.12502
lthumb -4.04639 48.2725
rfemur 4.42462 16.2999 25.5322
rtibia 29.6826
rfoot 5.13843 -15.018
rtoes 3.95813
lfemur 1.63934 -8.10926 -20.1533
ltibia 22.8576
lfoot 13.8943 9.02664
ltoes -9.6414
156
root -1.28115 20.1149 1.75372 4.61498 -79.0629 -10.5713
lowerback 10.5267 2.55412 0.657688
upperback -5.60827 3.42124 -0.819217
thorax -11.929 1.51724 -1.96228
lowerneck -16.2543 -4.3877 -10.3228
upperneck -14.3789 -4.3207 9.14103
head -1.31367 -1.97822 4.35955
rclavicle 9.14409e-015 5.56597e-015
rhumerus 88.617 -27.2327 -44.7721
rradius 20.7468
rwrist 31.6765
rhand -40.3121 7.2403
rfingers 7.12502
rthumb -13.2687 -22.3173
lclavicle 9.14409e-015 5.56597e-015
lhumerus 94.0738 18.8553 21.2647
lradius 35.3449
lwrist -13.3675
lhand -31.8454 18.7569
lfingers 7.12502
lthumb -5.09941 48.6755
rfemur 4.04321 15.7868 25.3807
rtibia 29.7861
rfoot 5.01146 -15.5632
rtoes 4.42631
lfemur 1.8421 -8.2963 -20.1834
ltibia 22.7644
lfoot 13.6047 9.37964
ltoes -10.0887
157
root -1.29486 20.1108 1.75263 5.09721 -79.3389 -11.1338
lowerback 10.7185 2.5812 0.598067
upperback -5.58304 3.44476 -0.865515
thorax -12.0166 1.52911 -1.99416
lowerneck -16.4933 -4.26541 -10.0168
upperneck -14.1046 -4.18913 9.12276
head -1.21465 -1.92194 4.30084
rclavicle 8.74653e-015 2.38542e-015
rhumerus 88.9491 -26.9259 -45.5547
rradius 20.5417
rwrist 31.4318
rhand -39.3617 9.04242
rfingers 7.12502
rthumb -12.3524 -20.5727
lclavicle 8.74653e-015 2.38542e-015
lhumerus 93.9498 19.0044 21.2674
lradius 35.9804
lwrist -13.4594
lhand -32.2444 19.0583
lfingers 7.12502
lthumb -5.48469 48.9673
rfemur 3.70979 15.4843 25.2915
rtibia 29.9209
rfoot 4.74247 -16.0377
rtoes 5.34759
lfemur 2.13288 -8.52862 -20.2216
ltibia 22.6665
lfoot 13.1426 9.86546
ltoes -9.23104
158
root -1.31061 20.1006 1.75184 5.29892 -79.6204 -11.3907
lowerback 10.7855 2.64013 0.54858
upperback -5.52247 3.50968 -0.932864
thorax -11.9848 1.56159 -2.05453
lowerneck -16.5414 -4.21214 -9.94769
upperneck -14.0299 -4.11431 9.33159
head -1.18392 -1.88811 4.35627
rclavicle 4.19436e-014 -7.95139e-015
rhumerus 89.9188 -26.658 -47.3681
rradius 20.1874
rwrist 30.8356
rhand -36.4002 14.1791
rfingers 7.12502
rthumb -9.49592 -15.5869
lclavicle 4.19436e-014 -7.95139e-015
lhumerus 94.0232 19.1187 21.6256
lradius 36.4966
lwrist -13.563
lhand -33.1745 18.8114
lfingers 7.12502
lthumb -6.38264 48.6952
rfemur 3.36587 15.1951 25.1478
rtibia 30.0548
rfoot 4.73635 -16.3247
rtoes 6.14026
lfemur 2.40581 -8.83048 -20.3611
ltibia 22.6033
lfoot 12.6201 10.4461
ltoes -8.25599
159
root -1.32019 20.0907 1.74734 5.30398 -79.8592 -11.515
lowerback 11.0128 2.66984 0.481501
upperback -5.4568 3.53293 -1.0022
thorax -12.0469 1.5735 -2.10815
lowerneck -16.4666 -4.16005 -9.80557
upperneck -14.0525 -4.07171 9.37096
head -1.20529 -1.8758 4.3487
rclavicle -3.06128e-014 6.36111e-015
rhumerus 88.7912 -26.5128 -45.7329
rradius 20.3413
rwrist 30.2208
rhand -38.5475 11.6454
rfingers 7.12502
rthumb -11.5673 -18.0154
lclavicle -3.06128e-014 6.36111e-015
lhumerus 93.9594 19.2821 21.7585
lradius 36.9162
lwrist -13.0045
lhand -34.9782 18.6713
lfingers 7.12502
lthumb -8.12374 48.4952
rfemur 3.09252 14.8581 25.0459
rtibia 30.1604
rfoot 5.00563 -16.5112
rtoes 6.05421
lfemur 2.65123 -8.91575 -20.4691
ltibia 22.5867
lfoot 12.2113 10.9289
ltoes -7.02682
160
root -1.32426 20.0863 1.73847 5.9177 -80.0147 -12.2591
lowerback 11.3621 2.67437 0.466538
upperback -5.41348 3.5378 -1.01136
thorax -12.2099 1.57323 -2.13015
lowerneck -16.5708 -4.15227 -9.60608
upperneck -13.8646 -4.09028 9.29595
head -1.13857 -1.89058 4.28598
rclavicle 4.11484e-014 -1.59028e-015
rhumerus 87.7322 -26.2754 -44.1935
rradius 20.5127
rwrist 29.9364
rhand -40.609 8.60383
rfingers 7.12502
rthumb -13.5548 -20.935
lclavicle 4.11484e-014 -1.59028e-015
lhumerus 93.9158 19.4115 21.9613
lradius 37.1489
lwrist -12.2008
lhand -35.7661 19.1108
lfingers 7.12502
lthumb -8.88415 48.9037
rfemur 2.82426 14.6887 25.1617
rtibia 30.2578
rfoot 5.25878 -16.8179
rtoes 5.9589
lfemur 2.82558 -8.78343 -20.353
ltibia 22.5693
lfoot 12.0351 10.9994
ltoes -6.78733
161
root -1.33495 20.0842 1.72808 6.80672 -80.1229 -13.1463
lowerback 11.4809 2.64435 0.404835
upperback -5.41214 3.49472 -0.950562
thorax -12.2899 1.55924 -2.02721
lowerneck -16.6354 -4.17131 -9.75795
upperneck -13.6578 -4.07419 9.55581
head -1.05521 -1.87379 4.38782
rclavicle -2.56432e-014 5.56597e-015
rhumerus 87.1372 -25.9458 -43.2946
rradius 20.5487
rwrist 29.736
rhand -41.4229 7.06437
rfingers 7.12502
rthumb -14.3392 -22.4204
lclavicle -2.56432e-014 5.56597e-015
lhumerus 93.9901 19.4474 22.6568
lradius 37.2394
lwrist -12.0907
lhand -35.7831 19.3293
lfingers 7.12502
lthumb -8.90046 49.1215
rfemur 2.42 14.6449 25.3033
rtibia 30.3787
rfoot 5.54186 -17.0736
rtoes 6.24448
lfemur 2.88658 -8.48328 -20.1321
ltibia 22.505
lfoot 12.0121 10.6149
ltoes -7.47277
162
root -1.3508 20.0792 1.72009 6.77001 -80.279 -13.1394
lowerback 11.5549 2.61101 0.260709
upperback -5.40888 3.42535 -0.951852
thorax -12.3421 1.53681 -1.93719
lowerneck -16.4518 -4.1108 -9.93534
upperneck -13.6267 -3.96462 9.84484
head -1.06643 -1.81548 4.51486
rclavicle -2.66371e-014 1.03368e-014
rhumerus 86.7109 -25.5716 -42.7912
rradius 20.5144
rwrist 29.5394
rhand -41.5708 6.74077
rfingers 7.12502
rthumb -14.4816 -22.7339
lclavicle -2.66371e-014 1.03368e-014
lhumerus 94.0887 19.4385 23.5185
lradius 37.3762
lwrist -12.2696
lhand -35.8407 19.3178
lfingers 7.12502
lthumb -8.95611 49.1077
rfemur 2.08383 14.797 25.2711
rtibia 30.5216
rfoot 5.61297 -17.3834
rtoes 7.36437
lfemur 3.05591 -8.14393 -20.1291
ltibia 22.4013
lfoot 11.9318 10.324
ltoes -7.64828
